<mxfile host="app.diagrams.net" modified="2021-09-29T19:58:22.079Z" agent="5.0 (Windows NT 10.0; Win64; x64) AppleWebKit/537.36 (KHTML, like Gecko) Chrome/93.0.4577.82 Safari/537.36" etag="863Dc_5kO_f38gMgyFn7" version="15.3.8" type="github">
  <diagram id="3Ajc81tR5tUoPRkasMam" name="Page-1">
    <mxGraphModel dx="1447" dy="750" grid="1" gridSize="10" guides="1" tooltips="1" connect="1" arrows="1" fold="1" page="1" pageScale="1" pageWidth="1169" pageHeight="1654" math="0" shadow="0">
      <root>
        <mxCell id="0" />
        <mxCell id="1" parent="0" />
        <mxCell id="v9drEudW5BO2676GUL4H-2" value="&lt;font style=&quot;font-size: 20px&quot;&gt;&lt;b&gt;PatientAllocation(PatientAlloNo,DatePlaced,BedNo,OnWaitngList,ExpectedStay,ExpectedLeave,ActualLeave)&lt;/b&gt;&lt;/font&gt;" style="text;html=1;strokeColor=none;fillColor=none;align=center;verticalAlign=middle;whiteSpace=wrap;rounded=0;" vertex="1" parent="1">
          <mxGeometry x="540" y="20" width="40" height="50" as="geometry" />
        </mxCell>
        <mxCell id="v9drEudW5BO2676GUL4H-4" value="&lt;font style=&quot;font-size: 20px&quot;&gt;&lt;b&gt;Ward(WardNo,WardName,Location,Phone,No.ofBed)&lt;/b&gt;&lt;/font&gt;" style="text;html=1;strokeColor=none;fillColor=none;align=center;verticalAlign=middle;whiteSpace=wrap;rounded=0;" vertex="1" parent="1">
          <mxGeometry x="550" y="120" width="10" height="20" as="geometry" />
        </mxCell>
        <mxCell id="v9drEudW5BO2676GUL4H-5" value="&lt;b style=&quot;font-size: 20px&quot;&gt;ClinicAppointTime(Date,Time)&lt;/b&gt;" style="text;html=1;strokeColor=none;fillColor=none;align=center;verticalAlign=middle;whiteSpace=wrap;rounded=0;" vertex="1" parent="1">
          <mxGeometry x="552.5" y="200" width="15" height="20" as="geometry" />
        </mxCell>
        <mxCell id="v9drEudW5BO2676GUL4H-18" style="edgeStyle=orthogonalEdgeStyle;rounded=0;orthogonalLoop=1;jettySize=auto;html=1;exitX=0;exitY=0.5;exitDx=0;exitDy=0;" edge="1" parent="1" source="v9drEudW5BO2676GUL4H-6">
          <mxGeometry relative="1" as="geometry">
            <mxPoint x="540.0000000000002" y="290" as="targetPoint" />
          </mxGeometry>
        </mxCell>
        <mxCell id="v9drEudW5BO2676GUL4H-6" value="&lt;b style=&quot;font-size: 20px&quot;&gt;StaffAllocation(AllocatioonDate,Shift)&lt;br&gt;&lt;/b&gt;" style="text;html=1;strokeColor=none;fillColor=none;align=center;verticalAlign=middle;whiteSpace=wrap;rounded=0;" vertex="1" parent="1">
          <mxGeometry x="552.5" y="280" width="15" height="20" as="geometry" />
        </mxCell>
        <mxCell id="v9drEudW5BO2676GUL4H-7" value="&lt;b style=&quot;font-size: 20px&quot;&gt;Staff(StaffNo,Name,Address,Phone)&lt;br&gt;&lt;/b&gt;" style="text;html=1;strokeColor=none;fillColor=none;align=center;verticalAlign=middle;whiteSpace=wrap;rounded=0;" vertex="1" parent="1">
          <mxGeometry x="560" y="360" width="15" height="20" as="geometry" />
        </mxCell>
        <mxCell id="v9drEudW5BO2676GUL4H-8" value="&lt;b style=&quot;color: rgb(0 , 0 , 0) ; font-family: &amp;#34;helvetica&amp;#34; ; font-style: normal ; letter-spacing: normal ; text-align: center ; text-indent: 0px ; text-transform: none ; word-spacing: 0px ; background-color: rgb(248 , 249 , 250) ; font-size: 20px&quot;&gt;Qualification(QualificationNo,O_type,O_Done,Introduction)&lt;br&gt;&lt;/b&gt;" style="text;whiteSpace=wrap;html=1;" vertex="1" parent="1">
          <mxGeometry x="290" y="450" width="370" height="30" as="geometry" />
        </mxCell>
        <mxCell id="v9drEudW5BO2676GUL4H-9" value="&lt;b style=&quot;color: rgb(0 , 0 , 0) ; font-family: &amp;#34;helvetica&amp;#34; ; font-style: normal ; letter-spacing: normal ; text-align: center ; text-indent: 0px ; text-transform: none ; word-spacing: 0px ; background-color: rgb(248 , 249 , 250) ; font-size: 20px&quot;&gt;WorkExpression(ExpertanceNo,StartDate,FinishDate,Organization,Position)&lt;/b&gt;" style="text;whiteSpace=wrap;html=1;" vertex="1" parent="1">
          <mxGeometry x="220" y="540" width="370" height="30" as="geometry" />
        </mxCell>
        <mxCell id="v9drEudW5BO2676GUL4H-10" value="&lt;b style=&quot;color: rgb(0 , 0 , 0) ; font-family: &amp;#34;helvetica&amp;#34; ; font-style: normal ; letter-spacing: normal ; text-align: center ; text-indent: 0px ; text-transform: none ; word-spacing: 0px ; background-color: rgb(248 , 249 , 250) ; font-size: 20px&quot;&gt;WardRequired(ReqNo,Req.Date)&lt;/b&gt;" style="text;whiteSpace=wrap;html=1;" vertex="1" parent="1">
          <mxGeometry x="390" y="640" width="370" height="30" as="geometry" />
        </mxCell>
        <mxCell id="v9drEudW5BO2676GUL4H-11" value="&lt;div style=&quot;text-align: center&quot;&gt;&lt;span style=&quot;font-size: 20px&quot;&gt;&lt;font face=&quot;helvetica&quot;&gt;&lt;b&gt;RequestLine(Quality)&lt;/b&gt;&lt;/font&gt;&lt;/span&gt;&lt;/div&gt;" style="text;whiteSpace=wrap;html=1;" vertex="1" parent="1">
          <mxGeometry x="440" y="730" width="370" height="30" as="geometry" />
        </mxCell>
        <mxCell id="v9drEudW5BO2676GUL4H-12" value="&lt;b style=&quot;color: rgb(0 , 0 , 0) ; font-family: &amp;#34;helvetica&amp;#34; ; font-style: normal ; letter-spacing: normal ; text-align: center ; text-indent: 0px ; text-transform: none ; word-spacing: 0px ; background-color: rgb(248 , 249 , 250) ; font-size: 20px&quot;&gt;Hospitalsupplies(SuppliesNo,Name,Description,Unit,On_Hand,ReorderLevel)&lt;/b&gt;" style="text;whiteSpace=wrap;html=1;" vertex="1" parent="1">
          <mxGeometry x="260" y="827" width="370" height="30" as="geometry" />
        </mxCell>
        <mxCell id="v9drEudW5BO2676GUL4H-13" value="&lt;b style=&quot;color: rgb(0 , 0 , 0) ; font-family: &amp;#34;helvetica&amp;#34; ; font-style: normal ; letter-spacing: normal ; text-align: center ; text-indent: 0px ; text-transform: none ; word-spacing: 0px ; background-color: rgb(248 , 249 , 250) ; font-size: 20px&quot;&gt;PharmaticalSupplies(Demassege,AdminMethod)&lt;/b&gt;" style="text;whiteSpace=wrap;html=1;" vertex="1" parent="1">
          <mxGeometry x="390" y="910" width="370" height="30" as="geometry" />
        </mxCell>
        <mxCell id="v9drEudW5BO2676GUL4H-14" value="&lt;b style=&quot;color: rgb(0 , 0 , 0) ; font-family: &amp;#34;helvetica&amp;#34; ; font-style: normal ; letter-spacing: normal ; text-align: center ; text-indent: 0px ; text-transform: none ; word-spacing: 0px ; background-color: rgb(248 , 249 , 250) ; font-size: 20px&quot;&gt;PriceQuote(UnitCost)&lt;/b&gt;" style="text;whiteSpace=wrap;html=1;" vertex="1" parent="1">
          <mxGeometry x="440" y="1010" width="370" height="30" as="geometry" />
        </mxCell>
        <mxCell id="v9drEudW5BO2676GUL4H-15" value="&lt;b style=&quot;color: rgb(0 , 0 , 0) ; font-family: &amp;#34;helvetica&amp;#34; ; font-style: normal ; letter-spacing: normal ; text-align: center ; text-indent: 0px ; text-transform: none ; word-spacing: 0px ; background-color: rgb(248 , 249 , 250) ; font-size: 20px&quot;&gt;Supplier(SuppNo,SupName,SuppAdd,SuppPhone,suppFax)&lt;/b&gt;" style="text;whiteSpace=wrap;html=1;" vertex="1" parent="1">
          <mxGeometry x="300" y="1100" width="370" height="30" as="geometry" />
        </mxCell>
        <mxCell id="v9drEudW5BO2676GUL4H-17" style="edgeStyle=orthogonalEdgeStyle;rounded=0;orthogonalLoop=1;jettySize=auto;html=1;" edge="1" parent="1" source="v9drEudW5BO2676GUL4H-4" target="v9drEudW5BO2676GUL4H-4">
          <mxGeometry relative="1" as="geometry" />
        </mxCell>
        <mxCell id="v9drEudW5BO2676GUL4H-21" value="&lt;b style=&quot;color: rgb(0 , 0 , 0) ; font-family: &amp;#34;helvetica&amp;#34; ; font-style: normal ; letter-spacing: normal ; text-align: center ; text-indent: 0px ; text-transform: none ; word-spacing: 0px ; background-color: rgb(248 , 249 , 250) ; font-size: 20px&quot;&gt;LocalDr(DrId,Name,ClinicNo,Address,Phone)&lt;/b&gt;" style="text;whiteSpace=wrap;html=1;" vertex="1" parent="1">
          <mxGeometry x="310" y="1220" width="370" height="30" as="geometry" />
        </mxCell>
        <mxCell id="v9drEudW5BO2676GUL4H-23" value="&lt;b style=&quot;color: rgb(0 , 0 , 0) ; font-family: &amp;#34;helvetica&amp;#34; ; font-style: normal ; letter-spacing: normal ; text-align: center ; text-indent: 0px ; text-transform: none ; word-spacing: 0px ; background-color: rgb(248 , 249 , 250) ; font-size: 20px&quot;&gt;PatientMadication(StartDate,FinishDate,unitPerDay)&lt;/b&gt;&lt;span style=&quot;color: rgba(0 , 0 , 0 , 0) ; font-family: monospace ; font-size: 0px&quot;&gt;%3CmxGraphModel%3E%3Croot%3E%3CmxCell%20id%3D%220%22%2F%3E%3CmxCell%20id%3D%221%22%20parent%3D%220%22%2F%3E%3CmxCell%20id%3D%222%22%20value%3D%22%26lt%3Bb%20style%3D%26quot%3Bcolor%3A%20rgb(0%20%2C%200%20%2C%200)%20%3B%20font-family%3A%20%26amp%3B%2334%3Bhelvetica%26amp%3B%2334%3B%20%3B%20font-style%3A%20normal%20%3B%20letter-spacing%3A%20normal%20%3B%20text-align%3A%20center%20%3B%20text-indent%3A%200px%20%3B%20text-transform%3A%20none%20%3B%20word-spacing%3A%200px%20%3B%20background-color%3A%20rgb(248%20%2C%20249%20%2C%20250)%20%3B%20font-size%3A%2020px%26quot%3B%26gt%3BSupplier(SuppNo%2CSupName%2CSuppAdd%2CSuppPhone%2CsuppFax)%26lt%3B%2Fb%26gt%3B%22%20style%3D%22text%3BwhiteSpace%3Dwrap%3Bhtml%3D1%3B%22%20vertex%3D%221%22%20parent%3D%221%22%3E%3CmxGeometry%20x%3D%22300%22%20y%3D%221190%22%20width%3D%22370%22%20height%3D%2230%22%20as%3D%22geometry%22%2F%3E%3C%2FmxCell%3E%3C%2Froot%3E%3C%2FmxGraphModel%3E&lt;/span&gt;" style="text;whiteSpace=wrap;html=1;" vertex="1" parent="1">
          <mxGeometry x="290" y="1330" width="370" height="30" as="geometry" />
        </mxCell>
        <mxCell id="v9drEudW5BO2676GUL4H-24" value="&lt;b style=&quot;color: rgb(0 , 0 , 0) ; font-family: &amp;#34;helvetica&amp;#34; ; font-style: normal ; letter-spacing: normal ; text-align: center ; text-indent: 0px ; text-transform: none ; word-spacing: 0px ; background-color: rgb(248 , 249 , 250) ; font-size: 20px&quot;&gt;Nextofkm(Name,Address,Relationship,phone)&lt;/b&gt;" style="text;whiteSpace=wrap;html=1;" vertex="1" parent="1">
          <mxGeometry x="320" y="1400" width="370" height="30" as="geometry" />
        </mxCell>
        <mxCell id="v9drEudW5BO2676GUL4H-25" value="&lt;b style=&quot;color: rgb(0 , 0 , 0) ; font-family: &amp;#34;helvetica&amp;#34; ; font-style: normal ; letter-spacing: normal ; text-align: center ; text-indent: 0px ; text-transform: none ; word-spacing: 0px ; background-color: rgb(248 , 249 , 250) ; font-size: 20px&quot;&gt;Pateint(PateintNo..........)&lt;/b&gt;" style="text;whiteSpace=wrap;html=1;" vertex="1" parent="1">
          <mxGeometry x="320" y="1500" width="240" height="30" as="geometry" />
        </mxCell>
        <mxCell id="v9drEudW5BO2676GUL4H-26" value="&lt;b style=&quot;color: rgb(0 , 0 , 0) ; font-family: &amp;#34;helvetica&amp;#34; ; font-style: normal ; letter-spacing: normal ; text-align: center ; text-indent: 0px ; text-transform: none ; word-spacing: 0px ; background-color: rgb(248 , 249 , 250) ; font-size: 20px&quot;&gt;ClinicAppointment(Date,Time......)&lt;/b&gt;" style="text;whiteSpace=wrap;html=1;" vertex="1" parent="1">
          <mxGeometry x="280" y="1590" width="370" height="30" as="geometry" />
        </mxCell>
        <mxCell id="v9drEudW5BO2676GUL4H-27" style="edgeStyle=orthogonalEdgeStyle;rounded=0;orthogonalLoop=1;jettySize=auto;html=1;exitX=0.25;exitY=1;exitDx=0;exitDy=0;entryX=0.27;entryY=0.667;entryDx=0;entryDy=0;entryPerimeter=0;" edge="1" parent="1" source="v9drEudW5BO2676GUL4H-24" target="v9drEudW5BO2676GUL4H-24">
          <mxGeometry relative="1" as="geometry" />
        </mxCell>
        <mxCell id="v9drEudW5BO2676GUL4H-29" value="" style="endArrow=classic;html=1;" edge="1" parent="1">
          <mxGeometry width="50" height="50" relative="1" as="geometry">
            <mxPoint x="320" y="70" as="sourcePoint" />
            <mxPoint x="400" y="110" as="targetPoint" />
            <Array as="points" />
          </mxGeometry>
        </mxCell>
        <mxCell id="v9drEudW5BO2676GUL4H-31" value="" style="endArrow=classic;html=1;" edge="1" parent="1">
          <mxGeometry width="50" height="50" relative="1" as="geometry">
            <mxPoint x="300" y="1525" as="sourcePoint" />
            <mxPoint x="190" y="60" as="targetPoint" />
            <Array as="points">
              <mxPoint x="170" y="1330" />
              <mxPoint x="120" y="650" />
            </Array>
          </mxGeometry>
        </mxCell>
        <mxCell id="v9drEudW5BO2676GUL4H-34" value="" style="endArrow=classic;html=1;" edge="1" parent="1">
          <mxGeometry width="50" height="50" relative="1" as="geometry">
            <mxPoint x="390" y="340" as="sourcePoint" />
            <mxPoint x="320" y="150" as="targetPoint" />
            <Array as="points">
              <mxPoint x="320" y="300" />
              <mxPoint x="310" y="220" />
            </Array>
          </mxGeometry>
        </mxCell>
        <mxCell id="v9drEudW5BO2676GUL4H-35" value="" style="endArrow=classic;html=1;" edge="1" parent="1">
          <mxGeometry width="50" height="50" relative="1" as="geometry">
            <mxPoint x="410" y="210" as="sourcePoint" />
            <mxPoint x="370" y="150" as="targetPoint" />
            <Array as="points">
              <mxPoint x="370" y="190" />
            </Array>
          </mxGeometry>
        </mxCell>
        <mxCell id="v9drEudW5BO2676GUL4H-36" value="" style="endArrow=classic;html=1;" edge="1" parent="1">
          <mxGeometry width="50" height="50" relative="1" as="geometry">
            <mxPoint x="370" y="280" as="sourcePoint" />
            <mxPoint x="340" y="150" as="targetPoint" />
            <Array as="points">
              <mxPoint x="350" y="230" />
            </Array>
          </mxGeometry>
        </mxCell>
        <mxCell id="v9drEudW5BO2676GUL4H-37" value="" style="endArrow=classic;html=1;" edge="1" parent="1">
          <mxGeometry width="50" height="50" relative="1" as="geometry">
            <mxPoint x="380" y="460" as="sourcePoint" />
            <mxPoint x="430" y="390" as="targetPoint" />
          </mxGeometry>
        </mxCell>
        <mxCell id="v9drEudW5BO2676GUL4H-38" value="" style="endArrow=classic;html=1;" edge="1" parent="1">
          <mxGeometry width="50" height="50" relative="1" as="geometry">
            <mxPoint x="280" y="530" as="sourcePoint" />
            <mxPoint x="400" y="390" as="targetPoint" />
            <Array as="points">
              <mxPoint x="250" y="450" />
            </Array>
          </mxGeometry>
        </mxCell>
        <mxCell id="v9drEudW5BO2676GUL4H-39" value="" style="endArrow=classic;html=1;" edge="1" parent="1">
          <mxGeometry width="50" height="50" relative="1" as="geometry">
            <mxPoint x="370" y="660" as="sourcePoint" />
            <mxPoint x="300" y="150" as="targetPoint" />
            <Array as="points">
              <mxPoint x="260" y="650" />
              <mxPoint x="180" y="590" />
              <mxPoint x="210" y="400" />
            </Array>
          </mxGeometry>
        </mxCell>
        <mxCell id="v9drEudW5BO2676GUL4H-40" value="" style="endArrow=classic;html=1;entryX=0.161;entryY=1.111;entryDx=0;entryDy=0;entryPerimeter=0;" edge="1" parent="1" target="v9drEudW5BO2676GUL4H-10">
          <mxGeometry width="50" height="50" relative="1" as="geometry">
            <mxPoint x="498" y="728" as="sourcePoint" />
            <mxPoint x="450" y="680" as="targetPoint" />
          </mxGeometry>
        </mxCell>
        <mxCell id="v9drEudW5BO2676GUL4H-41" value="" style="endArrow=classic;html=1;exitX=0.324;exitY=0.1;exitDx=0;exitDy=0;exitPerimeter=0;entryX=0.094;entryY=1.222;entryDx=0;entryDy=0;entryPerimeter=0;" edge="1" parent="1" source="v9drEudW5BO2676GUL4H-12" target="v9drEudW5BO2676GUL4H-11">
          <mxGeometry width="50" height="50" relative="1" as="geometry">
            <mxPoint x="380" y="820" as="sourcePoint" />
            <mxPoint x="470" y="770" as="targetPoint" />
          </mxGeometry>
        </mxCell>
        <mxCell id="v9drEudW5BO2676GUL4H-42" value="" style="endArrow=classic;html=1;exitX=0.071;exitY=-0.167;exitDx=0;exitDy=0;exitPerimeter=0;" edge="1" parent="1" source="v9drEudW5BO2676GUL4H-14">
          <mxGeometry width="50" height="50" relative="1" as="geometry">
            <mxPoint x="580" y="770" as="sourcePoint" />
            <mxPoint x="330" y="860" as="targetPoint" />
            <Array as="points">
              <mxPoint x="370" y="970" />
            </Array>
          </mxGeometry>
        </mxCell>
        <mxCell id="v9drEudW5BO2676GUL4H-43" value="" style="endArrow=classic;html=1;" edge="1" parent="1">
          <mxGeometry width="50" height="50" relative="1" as="geometry">
            <mxPoint x="340" y="1110" as="sourcePoint" />
            <mxPoint x="470" y="1050" as="targetPoint" />
          </mxGeometry>
        </mxCell>
        <mxCell id="v9drEudW5BO2676GUL4H-44" value="" style="endArrow=classic;html=1;" edge="1" parent="1">
          <mxGeometry width="50" height="50" relative="1" as="geometry">
            <mxPoint x="380" y="930" as="sourcePoint" />
            <mxPoint x="300" y="860" as="targetPoint" />
          </mxGeometry>
        </mxCell>
        <mxCell id="v9drEudW5BO2676GUL4H-45" value="" style="endArrow=classic;html=1;" edge="1" parent="1">
          <mxGeometry width="50" height="50" relative="1" as="geometry">
            <mxPoint x="280" y="1350" as="sourcePoint" />
            <mxPoint x="410" y="950" as="targetPoint" />
            <Array as="points">
              <mxPoint x="220" y="1120" />
            </Array>
          </mxGeometry>
        </mxCell>
        <mxCell id="v9drEudW5BO2676GUL4H-46" value="" style="endArrow=classic;html=1;exitX=0.031;exitY=-0.056;exitDx=0;exitDy=0;exitPerimeter=0;" edge="1" parent="1" source="v9drEudW5BO2676GUL4H-25">
          <mxGeometry relative="1" as="geometry">
            <mxPoint x="310" y="1500" as="sourcePoint" />
            <mxPoint x="330" y="1260" as="targetPoint" />
            <Array as="points">
              <mxPoint x="200" y="1460" />
            </Array>
          </mxGeometry>
        </mxCell>
        <mxCell id="v9drEudW5BO2676GUL4H-47" value="Label" style="edgeLabel;resizable=0;html=1;align=center;verticalAlign=middle;" connectable="0" vertex="1" parent="v9drEudW5BO2676GUL4H-46">
          <mxGeometry relative="1" as="geometry" />
        </mxCell>
        <mxCell id="v9drEudW5BO2676GUL4H-48" value="Source" style="edgeLabel;resizable=0;html=1;align=left;verticalAlign=bottom;" connectable="0" vertex="1" parent="v9drEudW5BO2676GUL4H-46">
          <mxGeometry x="-1" relative="1" as="geometry" />
        </mxCell>
        <mxCell id="v9drEudW5BO2676GUL4H-49" value="&lt;b style=&quot;color: rgb(0 , 0 , 0) ; font-family: &amp;#34;helvetica&amp;#34; ; font-style: normal ; letter-spacing: normal ; text-align: center ; text-indent: 0px ; text-transform: none ; word-spacing: 0px ; background-color: rgb(248 , 249 , 250) ; font-size: 20px&quot;&gt;Appointment(AppNo,AppName,Time,RoomNo,Date)&lt;/b&gt;" style="text;whiteSpace=wrap;html=1;" vertex="1" parent="1">
          <mxGeometry x="299" y="1160" width="370" height="30" as="geometry" />
        </mxCell>
        <mxCell id="v9drEudW5BO2676GUL4H-50" value="" style="endArrow=classic;html=1;" edge="1" parent="1">
          <mxGeometry width="50" height="50" relative="1" as="geometry">
            <mxPoint x="560" y="1520" as="sourcePoint" />
            <mxPoint x="800" y="1180" as="targetPoint" />
            <Array as="points">
              <mxPoint x="810" y="1500" />
            </Array>
          </mxGeometry>
        </mxCell>
        <mxCell id="v9drEudW5BO2676GUL4H-51" value="" style="endArrow=classic;html=1;entryX=0.211;entryY=1.222;entryDx=0;entryDy=0;entryPerimeter=0;" edge="1" parent="1" target="v9drEudW5BO2676GUL4H-24">
          <mxGeometry relative="1" as="geometry">
            <mxPoint x="380" y="1510" as="sourcePoint" />
            <mxPoint x="400" y="1440" as="targetPoint" />
            <Array as="points" />
          </mxGeometry>
        </mxCell>
        <mxCell id="v9drEudW5BO2676GUL4H-52" value="" style="shape=message;html=1;outlineConnect=0;" vertex="1" parent="v9drEudW5BO2676GUL4H-51">
          <mxGeometry width="20" height="14" relative="1" as="geometry">
            <mxPoint x="-10" y="-7" as="offset" />
          </mxGeometry>
        </mxCell>
        <mxCell id="v9drEudW5BO2676GUL4H-53" value="" style="endArrow=classic;html=1;exitX=0.188;exitY=0.056;exitDx=0;exitDy=0;exitPerimeter=0;entryX=0.124;entryY=1.167;entryDx=0;entryDy=0;entryPerimeter=0;" edge="1" parent="1" source="v9drEudW5BO2676GUL4H-26" target="v9drEudW5BO2676GUL4H-25">
          <mxGeometry width="50" height="50" relative="1" as="geometry">
            <mxPoint x="580" y="1270" as="sourcePoint" />
            <mxPoint x="350" y="1540" as="targetPoint" />
          </mxGeometry>
        </mxCell>
        <mxCell id="v9drEudW5BO2676GUL4H-54" value="" style="endArrow=classic;html=1;" edge="1" parent="1">
          <mxGeometry width="50" height="50" relative="1" as="geometry">
            <mxPoint x="270" y="1610" as="sourcePoint" />
            <mxPoint x="290" y="130" as="targetPoint" />
            <Array as="points">
              <mxPoint x="110" y="1390" />
              <mxPoint x="70" y="790" />
              <mxPoint x="100" y="590" />
            </Array>
          </mxGeometry>
        </mxCell>
      </root>
    </mxGraphModel>
  </diagram>
</mxfile>
